<?xml version="1.0" encoding="UTF-8"?>
<svg id="Layer_1" xmlns="http://www.w3.org/2000/svg" version="1.1" viewBox="0 0 1000 1000">
  <!-- Generator: Adobe Illustrator 29.0.1, SVG Export Plug-In . SVG Version: 2.1.0 Build 192)  -->
  <defs>
    <style>
      .st0 {
        stroke: #000;
        stroke-miterlimit: 10;
      }
    </style>
  </defs>
  <g>
    <path class="st0" d="M359.68,685.85h-64.21v-181.13l51.67,36.41,12.54,8.82v135.9h0Z"/>
    <polygon class="st0" points="359.68 549.95 359.68 685.85 295.47 685.85 295.47 504.72 347.14 541.13 359.68 549.95"/>
    <polygon class="st0" points="359.68 549.95 359.68 685.85 295.47 685.85 295.47 504.72 347.14 541.13 359.68 549.95"/>
    <path class="st0" d="M839.55,275.45l-44.17,31.09-16.37,11.53-138.57,97.53-84.64,59.63-55.74,39.26-55.74-39.26-84.64-59.63-64.21-45.24v-78.55l64.21,45.24,140.38,98.9,140.38-98.9,100.08-68.32,16.71-11.41c-3.06-3.3-6.19-6.55-9.39-9.75-1.6-1.6-3.22-3.19-4.85-4.74l45.43-31.01c4.76,4.82,9.37,9.74,13.84,14.76,13.72,15.39,26.17,31.7,37.29,48.87h0Z"/>
    <path class="st0" d="M839.55,275.45l-44.17,31.09-16.37,11.53-138.57,97.53-84.64,59.63-55.74,39.26-55.74-39.26-84.64-59.63-64.21-45.24v-78.55l64.21,45.24,140.38,98.9,140.38-98.9,100.08-68.32,16.71-11.41,45.03-30.74c13.72,15.39,26.17,31.7,37.29,48.87h0Z"/>
  </g>
  <polygon class="st0" points="359.68 549.95 359.68 685.85 295.47 685.85 295.47 504.72 347.14 541.13 359.68 549.95"/>
  <polygon class="st0" points="359.68 549.95 359.68 685.85 295.47 685.85 295.47 504.72 347.14 541.13 359.68 549.95"/>
  <polygon class="st0" points="359.68 523.34 359.68 524.42 295.47 479.19 295.47 478.1 359.68 523.34"/>
  <path class="st0" d="M704.65,399.55v286.3h-64.21v-162.51c-33.66,23.71-107.35,75.61-140.38,98.88-21.08-14.85-75.28-53.01-140.38-98.83v1.03l-64.21-45.23v-.99c-37.22-26.2-75.55-53.18-111.6-78.56-5.79-4.08-11.52-8.11-17.18-12.09-2.16,6.71-4.12,13.48-5.86,20.33-1.89-1.33-3.77-2.65-5.65-3.97l-41.08-28.94c2.06-6.63,4.3-13.2,6.71-19.73,2.15-5.83,4.44-11.61,6.87-17.36,5.63-13.32,11.94-26.27,18.91-38.81,14.33,9.92,29.28,20.25,44.6,30.83,5.48,3.79,11.01,7.61,16.57,11.44,119.82,82.79,255.88,176.69,292.3,202.35,62.56-44.07,141.88-99.96,204.59-144.14h0Z"/>
  <path class="st0" d="M704.65,399.55v286.3h-64.21v-162.51c-33.66,23.71-107.35,75.61-140.38,98.88-21.08-14.85-75.28-53.01-140.38-98.83-20.55-14.47-42.18-29.7-64.21-45.19-37.22-26.2-75.55-53.18-111.6-78.56-5.79-4.08-11.52-8.11-17.18-12.09-15.98-11.25-31.38-22.1-45.88-32.31,2.15-5.83,4.44-11.61,6.87-17.36,5.63-13.32,11.94-26.27,18.91-38.81,14.33,9.92,29.28,20.25,44.6,30.83,5.48,3.79,11.01,7.61,16.57,11.44,119.82,82.79,255.88,176.69,292.3,202.35,62.56-44.07,141.88-99.96,204.59-144.14h0Z"/>
  <path d="M102.05,348.3c-.15.4-.3.8-.44,1.21l.44-1.19c.27-.76.55-1.51.84-2.27-.29.75-.57,1.5-.84,2.25ZM802.26,226.58c-4.47-5.02-9.08-9.94-13.84-14.76-.78-.81-1.58-1.62-2.39-2.43-37.12-37.12-80.35-66.27-128.5-86.63-49.85-21.09-102.8-31.78-157.36-31.78s-107.51,10.69-157.37,31.78c-48.14,20.36-91.38,49.51-128.49,86.63-22.06,22.06-41.3,46.27-57.56,72.4l1.22.84c13.9,9.61,28.38,19.62,43.22,29.87,14.31-23.31,31.47-45.1,51.3-64.93,66.16-66.15,154.12-102.59,247.68-102.59s177.25,34.69,242.82,97.85c1.63,1.55,3.25,3.14,4.85,4.74,3.2,3.2,6.33,6.45,9.39,9.75l-16.71,11.41c.68.73,1.37,1.46,2.04,2.19,13.38,14.42,25.48,30.04,35.99,46.43.15.24.31.48.46.72l16.37-11.53,44.17-31.09c-11.12-17.17-23.57-33.48-37.29-48.87h0ZM872.65,337.88c-6.62-15.65-14.17-30.78-22.63-45.34l-44.3,31.18c29.19,51.79,44.71,110.47,44.71,171.53,0,93.56-36.43,181.52-102.59,247.68s-154.11,102.59-247.67,102.59-181.52-36.44-247.68-102.59c-66.16-66.16-102.59-154.12-102.59-247.68,0-29.87,3.72-59.17,10.93-87.37,1.74-6.85,3.7-13.62,5.86-20.33,5.66,3.98,11.39,8.01,17.18,12.09.6-2,1.22-3.99,1.86-5.97,5.77-17.97,13.18-35.56,22.03-52.33-5.56-3.83-11.09-7.65-16.57-11.44-15.32-10.58-30.27-20.91-44.6-30.83-6.97,12.54-13.28,25.49-18.91,38.81-2.43,5.75-4.72,11.53-6.87,17.36-2.41,6.53-4.65,13.1-6.71,19.73-12.09,38.75-18.2,79.06-18.2,120.28,0,54.56,10.69,107.51,31.78,157.37,20.36,48.14,49.51,91.37,86.63,128.49,37.11,37.12,80.35,66.26,128.49,86.63,49.86,21.09,102.8,31.78,157.37,31.78s107.51-10.69,157.36-31.78c48.15-20.37,91.38-49.51,128.5-86.63s66.26-80.35,86.62-128.49c21.09-49.86,31.78-102.81,31.78-157.37s-10.69-107.51-31.78-157.37h0Z"/>
  <path d="M347.14,541.13l-51.67-36.41v181.13h64.21v-135.9l-12.54-8.82h0Z"/>
  <path d="M802.26,226.58c-4.47-5.02-9.08-9.94-13.84-14.76-.78-.81-1.58-1.62-2.39-2.43-37.12-37.12-80.35-66.27-128.5-86.63-49.85-21.09-102.8-31.78-157.36-31.78s-107.51,10.69-157.37,31.78c-48.14,20.36-91.38,49.51-128.49,86.63-22.06,22.06-41.3,46.27-57.56,72.4l1.22.84c13.9,9.61,28.38,19.62,43.22,29.87,14.31-23.31,31.47-45.1,51.3-64.93,66.16-66.15,154.12-102.59,247.68-102.59s177.25,34.69,242.82,97.85c1.63,1.55,3.25,3.14,4.85,4.74,3.2,3.2,6.33,6.45,9.39,9.75,14.28,15.4,27.02,31.86,38.15,49.22l44.17-31.09c-11.12-17.17-23.57-33.48-37.29-48.87h0ZM872.65,337.88c-6.62-15.65-14.17-30.78-22.63-45.34l-44.3,31.18c29.19,51.79,44.71,110.47,44.71,171.53,0,93.56-36.43,181.52-102.59,247.68s-154.11,102.59-247.67,102.59-181.52-36.44-247.68-102.59c-66.16-66.16-102.59-154.12-102.59-247.68,0-29.87,3.72-59.17,10.93-87.37,1.74-6.85,3.7-13.62,5.86-20.33,6.4-19.92,14.6-39.2,24.5-57.65-15.32-10.58-30.27-20.91-44.6-30.83-6.97,12.54-13.28,25.49-18.91,38.81-2.43,5.75-4.72,11.53-6.87,17.36-2.41,6.53-4.65,13.1-6.71,19.73-12.09,38.75-18.2,79.06-18.2,120.28,0,54.56,10.69,107.51,31.78,157.37,20.36,48.14,49.51,91.37,86.63,128.49,37.11,37.12,80.35,66.26,128.49,86.63,49.86,21.09,102.8,31.78,157.37,31.78s107.51-10.69,157.36-31.78c48.15-20.37,91.38-49.51,128.5-86.63s66.26-80.35,86.62-128.49c21.09-49.86,31.78-102.81,31.78-157.37s-10.69-107.51-31.78-157.37h0Z"/>
</svg>